<svg width="141" height="30" viewBox="0 0 141 30" fill="none" xmlns="http://www.w3.org/2000/svg">
<path d="M10.4891 8.625V20H8.14531V10.4609H3.575V20H1.23125V8.625H10.4891ZM15.7303 11.5469V20H13.4725V11.5469H15.7303ZM13.3319 9.34375C13.3319 9.01562 13.4465 8.74479 13.6756 8.53125C13.9048 8.31771 14.2121 8.21094 14.5975 8.21094C14.9777 8.21094 15.2824 8.31771 15.5116 8.53125C15.7459 8.74479 15.8631 9.01562 15.8631 9.34375C15.8631 9.67188 15.7459 9.94271 15.5116 10.1562C15.2824 10.3698 14.9777 10.4766 14.5975 10.4766C14.2121 10.4766 13.9048 10.3698 13.6756 10.1562C13.4465 9.94271 13.3319 9.67188 13.3319 9.34375ZM20.0731 11.5469H22.3231L22.2528 14.375C22.232 15.2812 22.1278 16.0599 21.9403 16.7109C21.7528 17.362 21.5028 17.9089 21.1903 18.3516C20.8778 18.7943 20.521 19.1484 20.12 19.4141C19.7242 19.6745 19.3075 19.8698 18.87 20H18.4481L18.4247 18.2656L18.6591 18.2422C18.9247 17.9661 19.1434 17.6979 19.3153 17.4375C19.4872 17.1719 19.62 16.8932 19.7138 16.6016C19.8075 16.3099 19.8752 15.9844 19.9169 15.625C19.9638 15.2656 19.9924 14.849 20.0028 14.375L20.0731 11.5469ZM20.6825 11.5469H26.2841V20H24.0419V13.3516H20.6825V11.5469ZM17.9325 18.2422H27.495V22.5391H25.245V20H20.2372V22.5391H17.9325V18.2422ZM35.1972 11.5469V13.3125H31.1034V11.5469H35.1972ZM31.7519 11.5469V20H29.5019V11.5469H31.7519ZM36.8378 11.5469V20H34.58V11.5469H36.8378ZM41.7744 16.8594L44.6103 11.5469H46.8603V20H44.6103V14.6797L41.7744 20H39.5244V11.5469H41.7744V16.8594ZM53.0469 18.3984C53.3229 18.3984 53.5677 18.3464 53.7812 18.2422C53.9948 18.1328 54.1615 17.9818 54.2812 17.7891C54.4062 17.5911 54.4714 17.3594 54.4766 17.0938H56.5938C56.5885 17.6875 56.4297 18.2161 56.1172 18.6797C55.8047 19.138 55.3854 19.5 54.8594 19.7656C54.3333 20.026 53.7448 20.1562 53.0938 20.1562C52.4375 20.1562 51.8646 20.0469 51.375 19.8281C50.8906 19.6094 50.487 19.3073 50.1641 18.9219C49.8411 18.5312 49.599 18.0781 49.4375 17.5625C49.276 17.0417 49.1953 16.4844 49.1953 15.8906V15.6641C49.1953 15.0651 49.276 14.5078 49.4375 13.9922C49.599 13.4714 49.8411 13.0182 50.1641 12.6328C50.487 12.2422 50.8906 11.9375 51.375 11.7188C51.8594 11.5 52.4271 11.3906 53.0781 11.3906C53.7708 11.3906 54.3776 11.5234 54.8984 11.7891C55.4245 12.0547 55.8359 12.4349 56.1328 12.9297C56.4349 13.4193 56.5885 14 56.5938 14.6719H54.4766C54.4714 14.3906 54.4115 14.1354 54.2969 13.9062C54.1875 13.6771 54.026 13.4948 53.8125 13.3594C53.6042 13.2188 53.3464 13.1484 53.0391 13.1484C52.7109 13.1484 52.4427 13.2188 52.2344 13.3594C52.026 13.4948 51.8646 13.6823 51.75 13.9219C51.6354 14.1562 51.5547 14.4245 51.5078 14.7266C51.4661 15.0234 51.4453 15.3359 51.4453 15.6641V15.8906C51.4453 16.2188 51.4661 16.5339 51.5078 16.8359C51.5495 17.138 51.6276 17.4062 51.7422 17.6406C51.862 17.875 52.026 18.0599 52.2344 18.1953C52.4427 18.3307 52.7135 18.3984 53.0469 18.3984ZM63.4209 18.0938V14.3281C63.4209 14.0573 63.3767 13.8255 63.2881 13.6328C63.1996 13.4349 63.0616 13.2812 62.8741 13.1719C62.6918 13.0625 62.4548 13.0078 62.1631 13.0078C61.9131 13.0078 61.697 13.0521 61.5147 13.1406C61.3324 13.224 61.1918 13.3464 61.0928 13.5078C60.9939 13.6641 60.9444 13.849 60.9444 14.0625H58.6944C58.6944 13.7031 58.7777 13.362 58.9444 13.0391C59.111 12.7161 59.3532 12.4323 59.6709 12.1875C59.9886 11.9375 60.3662 11.7422 60.8037 11.6016C61.2465 11.4609 61.7412 11.3906 62.2881 11.3906C62.9444 11.3906 63.5277 11.5 64.0381 11.7188C64.5485 11.9375 64.9496 12.2656 65.2412 12.7031C65.5381 13.1406 65.6866 13.6875 65.6866 14.3438V17.9609C65.6866 18.4245 65.7152 18.8047 65.7725 19.1016C65.8298 19.3932 65.9131 19.6484 66.0225 19.8672V20H63.7491C63.6397 19.7708 63.5564 19.4844 63.4991 19.1406C63.447 18.7917 63.4209 18.4427 63.4209 18.0938ZM63.7178 14.8516L63.7334 16.125H62.4756C62.1787 16.125 61.9209 16.1589 61.7022 16.2266C61.4834 16.2943 61.3037 16.3906 61.1631 16.5156C61.0225 16.6354 60.9183 16.776 60.8506 16.9375C60.7881 17.099 60.7569 17.276 60.7569 17.4688C60.7569 17.6615 60.8011 17.8359 60.8897 17.9922C60.9782 18.1432 61.1058 18.263 61.2725 18.3516C61.4392 18.4349 61.6345 18.4766 61.8584 18.4766C62.197 18.4766 62.4912 18.4089 62.7412 18.2734C62.9912 18.138 63.184 17.9714 63.3194 17.7734C63.46 17.5755 63.5329 17.388 63.5381 17.2109L64.1319 18.1641C64.0485 18.3776 63.934 18.599 63.7881 18.8281C63.6475 19.0573 63.4678 19.2734 63.2491 19.4766C63.0303 19.6745 62.7673 19.8385 62.46 19.9688C62.1527 20.0938 61.7881 20.1562 61.3662 20.1562C60.8298 20.1562 60.3428 20.0495 59.9053 19.8359C59.473 19.6172 59.1293 19.3177 58.8741 18.9375C58.6241 18.5521 58.4991 18.1146 58.4991 17.625C58.4991 17.1823 58.5824 16.7891 58.7491 16.4453C58.9157 16.1016 59.1605 15.8125 59.4834 15.5781C59.8116 15.3385 60.2204 15.1589 60.71 15.0391C61.1996 14.9141 61.7673 14.8516 62.4131 14.8516H63.7178ZM72.5606 11.5469V20H70.3028V11.5469H72.5606ZM75.2794 11.5469V13.2891H67.6231V11.5469H75.2794ZM79.63 16.8594L82.4659 11.5469H84.7159V20H82.4659V14.6797L79.63 20H77.38V11.5469H79.63V16.8594ZM90.9025 18.3984C91.1785 18.3984 91.4233 18.3464 91.6369 18.2422C91.8504 18.1328 92.0171 17.9818 92.1369 17.7891C92.2619 17.5911 92.327 17.3594 92.3322 17.0938H94.4494C94.4442 17.6875 94.2853 18.2161 93.9728 18.6797C93.6603 19.138 93.241 19.5 92.715 19.7656C92.189 20.026 91.6004 20.1562 90.9494 20.1562C90.2931 20.1562 89.7202 20.0469 89.2306 19.8281C88.7462 19.6094 88.3426 19.3073 88.0197 18.9219C87.6968 18.5312 87.4546 18.0781 87.2931 17.5625C87.1317 17.0417 87.0509 16.4844 87.0509 15.8906V15.6641C87.0509 15.0651 87.1317 14.5078 87.2931 13.9922C87.4546 13.4714 87.6968 13.0182 88.0197 12.6328C88.3426 12.2422 88.7462 11.9375 89.2306 11.7188C89.715 11.5 90.2827 11.3906 90.9337 11.3906C91.6265 11.3906 92.2332 11.5234 92.7541 11.7891C93.2801 12.0547 93.6916 12.4349 93.9884 12.9297C94.2905 13.4193 94.4442 14 94.4494 14.6719H92.3322C92.327 14.3906 92.2671 14.1354 92.1525 13.9062C92.0431 13.6771 91.8817 13.4948 91.6681 13.3594C91.4598 13.2188 91.202 13.1484 90.8947 13.1484C90.5666 13.1484 90.2983 13.2188 90.09 13.3594C89.8817 13.4948 89.7202 13.6823 89.6056 13.9219C89.491 14.1562 89.4103 14.4245 89.3634 14.7266C89.3218 15.0234 89.3009 15.3359 89.3009 15.6641V15.8906C89.3009 16.2188 89.3218 16.5339 89.3634 16.8359C89.4051 17.138 89.4832 17.4062 89.5978 17.6406C89.7176 17.875 89.8817 18.0599 90.09 18.1953C90.2983 18.3307 90.5692 18.3984 90.9025 18.3984ZM98.5344 15.7812H100.816L98.4641 20H96.1906L98.5344 15.7812ZM100.05 11.5469H103.761V20H101.511V13.2891H100.05C99.7427 13.2891 99.4875 13.3464 99.2844 13.4609C99.0813 13.5703 98.9302 13.7135 98.8313 13.8906C98.7375 14.0625 98.6906 14.2396 98.6906 14.4219C98.6906 14.599 98.7375 14.7708 98.8313 14.9375C98.925 15.1042 99.0708 15.2422 99.2688 15.3516C99.4667 15.4609 99.7141 15.5156 100.011 15.5156H102.347V17.0469H100.011C99.4536 17.0469 98.9536 16.9792 98.5109 16.8438C98.0734 16.7083 97.6984 16.5208 97.3859 16.2812C97.0786 16.0365 96.8417 15.7526 96.675 15.4297C96.5135 15.1016 96.4328 14.7422 96.4328 14.3516C96.4328 13.9453 96.5161 13.5729 96.6828 13.2344C96.8495 12.8958 97.0891 12.599 97.4016 12.3438C97.7141 12.0885 98.0917 11.8932 98.5344 11.7578C98.9823 11.6172 99.4875 11.5469 100.05 11.5469Z" fill="white"/>
<path d="M141 3L117 16.5L124.67 19.3407L136.5 8.25002L127.502 20.3896L127.509 20.3923L127.5 20.3896V27.0001L131.801 21.982L137.25 24.0001L141 3Z" fill="white"/>
</svg>
